# xmcd
#
# Track frame offsets: 
#        150
#        18375
#        38762
#        54712
#        72887
#        89462
#
# Disc length: 1515 seconds
#
# Revision: 0
# Processed by: cddbd v1.4PL0 Copyright (c) Steve Scherf et al.
# Submitted via: ExactAudioCopy v0.95a3
#
DISCID=4905e906
DTITLE=Cadillac Cowboys - Country That Kicks
DYEAR=1997
DGENRE=Country
TTITLE0=Cowboy Up
TTITLE1=Sweet Love
TTITLE2=Shotgun Wedding
TTITLE3=Whiskey Woman
TTITLE4=Love Ain't A Game
TTITLE5=Lord Please Forgive Them
EXTD=
EXTT0=
EXTT1=
EXTT2=
EXTT3=
EXTT4=
EXTT5=
PLAYORDER=
